<svg width="312" height="222" viewBox="0 0 312 222" fill="none" xmlns="http://www.w3.org/2000/svg">
<path d="M95.7119 206.374C95.7119 197.832 122.344 190.818 155.169 190.818C187.994 190.818 214.626 197.832 214.626 206.444C214.615 207.419 214.302 208.366 213.732 209.152C208.777 216.444 184.416 222 155.169 222C122.344 222 95.7119 214.986 95.7119 206.374Z" fill="#F9C3C3"/>
<path d="M83.8775 195.749H26.6225C25.1551 195.752 23.7292 196.24 22.5623 197.138L0.541115 214.569C0.312947 214.745 0.145012 214.989 0.060719 215.267C-0.0235736 215.544 -0.0200231 215.841 0.0708756 216.116C0.161774 216.391 0.335492 216.631 0.567812 216.802C0.800132 216.973 1.07948 217.066 1.36691 217.069H61.8563C63.3907 217.054 64.8638 216.459 65.9853 215.402L84.4969 197.346C84.6317 197.22 84.7258 197.057 84.767 196.876C84.8081 196.695 84.7943 196.507 84.7274 196.334C84.6605 196.162 84.5436 196.013 84.392 195.909C84.2404 195.805 84.0611 195.749 83.8775 195.749V195.749Z" fill="#F9C3C3"/>
<path d="M311.039 195.749H253.715C252.247 195.752 250.822 196.24 249.655 197.138L227.633 214.569C227.405 214.745 227.237 214.989 227.153 215.267C227.069 215.544 227.072 215.841 227.163 216.116C227.254 216.391 227.428 216.631 227.66 216.802C227.892 216.973 228.172 217.066 228.459 217.069H288.949C290.483 217.054 291.956 216.459 293.078 215.402L311.589 197.346C311.736 197.232 311.844 197.074 311.897 196.895C311.95 196.715 311.946 196.524 311.885 196.347C311.824 196.17 311.709 196.017 311.558 195.91C311.406 195.802 311.224 195.746 311.039 195.749V195.749Z" fill="#F9C3C3"/>
<path d="M95.7114 203.527C95.7114 194.985 122.343 187.971 155.169 187.971C187.994 187.971 214.626 194.985 214.626 203.597C214.614 204.571 214.302 205.518 213.731 206.305C208.776 213.597 184.415 219.153 155.169 219.153C122.343 219.153 95.7114 212.139 95.7114 203.527Z" fill="#CC0000"/>
<path d="M213.731 206.305C208.776 213.597 184.484 219.153 155.169 219.153C122.343 219.153 95.7114 212.139 95.7114 203.527C95.7114 203.527 106.034 216.097 153.104 216.097C193.568 216.167 209.877 208.458 213.731 206.305Z" fill="#700B0B"/>
<path d="M189.027 199.916C186.756 197.416 172.442 195.471 155.169 195.471C137.139 195.471 122.412 197.555 121.105 200.194C121.724 198.666 125.853 193.388 155.169 193.388C182.145 193.388 187.857 198.11 189.027 199.916Z" fill="#700B0B"/>
<path d="M84.358 195.749L72.3152 108.801C72.2487 108.353 72.024 107.945 71.6825 107.651C71.341 107.357 70.9057 107.198 70.4571 107.203H54.2165C53.9489 107.205 53.6847 107.264 53.4415 107.377C53.1983 107.489 52.9816 107.653 52.8058 107.856C52.6301 108.06 52.4993 108.299 52.4221 108.558C52.345 108.816 52.3233 109.089 52.3585 109.356L56.4186 142.205C56.458 142.51 56.4321 142.82 56.3426 143.114C56.2532 143.408 56.1023 143.68 55.9001 143.91C55.698 144.141 55.4492 144.324 55.1707 144.45C54.8921 144.575 54.5902 144.638 54.2853 144.636H35.705C35.1433 144.639 34.6016 144.425 34.1919 144.037C33.7821 143.65 33.5354 143.118 33.5028 142.552L31.9889 109.078C31.9654 108.595 31.7601 108.139 31.4147 107.804C31.0694 107.468 30.6102 107.278 30.1308 107.273H14.9225C14.6712 107.268 14.4216 107.315 14.1893 107.412C13.957 107.509 13.7471 107.653 13.5726 107.836C13.3982 108.018 13.263 108.235 13.1755 108.473C13.0881 108.711 13.0503 108.964 13.0644 109.217L15.1289 166.442C15.1706 167.318 15.5434 168.145 16.1707 168.752C16.7979 169.359 17.6318 169.701 18.5009 169.706H59.8594L63.0938 195.888H84.358V195.749Z" fill="#7E0000"/>
<path d="M311.52 195.749L299.477 108.801C299.411 108.353 299.186 107.944 298.845 107.651C298.503 107.357 298.068 107.198 297.619 107.203H281.379C281.111 107.205 280.847 107.264 280.604 107.377C280.36 107.489 280.144 107.653 279.968 107.856C279.792 108.06 279.661 108.299 279.584 108.558C279.507 108.816 279.485 109.088 279.521 109.356L283.581 142.205C283.62 142.51 283.594 142.82 283.505 143.114C283.415 143.408 283.264 143.68 283.062 143.91C282.86 144.14 282.611 144.324 282.333 144.449C282.054 144.575 281.752 144.638 281.447 144.635H262.867C262.305 144.639 261.764 144.425 261.354 144.037C260.944 143.65 260.698 143.118 260.665 142.552L259.151 109.078C259.128 108.595 258.922 108.139 258.577 107.804C258.232 107.468 257.772 107.278 257.293 107.273H242.153C241.902 107.268 241.653 107.315 241.42 107.412C241.188 107.509 240.978 107.653 240.804 107.835C240.629 108.018 240.494 108.235 240.406 108.473C240.319 108.711 240.281 108.964 240.295 109.217L242.36 166.442C242.402 167.318 242.774 168.145 243.402 168.752C244.029 169.359 244.863 169.7 245.732 169.706H287.09L290.325 195.888H311.52V195.749Z" fill="#7E0000"/>
<path d="M71.8337 109.703L62.75 213.597C62.674 214.54 62.25 215.42 61.5619 216.063C60.8738 216.706 59.9717 217.065 59.0339 217.069H45.4083C44.8784 217.069 44.3544 216.956 43.8712 216.736C43.388 216.516 42.9564 216.196 42.6051 215.795C42.2539 215.395 41.9908 214.924 41.8335 214.413C41.6761 213.902 41.628 213.364 41.6923 212.833L47.404 164.15L6.596 164.845C6.0688 164.854 5.54616 164.745 5.06556 164.526C4.58497 164.307 4.15834 163.983 3.81628 163.579C3.47422 163.174 3.22521 162.697 3.08712 162.184C2.94902 161.67 2.92527 161.132 3.01756 160.608L3.15519 159.705L12.5142 109.078C12.6404 108.397 12.9981 107.781 13.5257 107.338C14.0533 106.894 14.7177 106.65 15.4045 106.648H28.4107C28.8367 106.655 29.2561 106.754 29.6408 106.939C30.0254 107.124 30.3662 107.39 30.6402 107.719C30.9142 108.048 31.115 108.433 31.229 108.847C31.343 109.261 31.3676 109.695 31.301 110.12L25.7269 142.066C25.6741 142.367 25.6883 142.677 25.7683 142.972C25.8483 143.268 25.9922 143.541 26.1896 143.774C26.3871 144.006 26.6332 144.192 26.9101 144.317C27.1871 144.442 27.4881 144.503 27.7914 144.496H47.2664L51.8082 109.009C51.9036 108.339 52.2336 107.725 52.7386 107.279C53.2435 106.833 53.89 106.585 54.5609 106.578H69.0811C69.4653 106.601 69.8414 106.699 70.1877 106.868C70.5341 107.038 70.844 107.274 71.0997 107.565C71.3554 107.855 71.5518 108.193 71.6778 108.56C71.8037 108.927 71.8567 109.316 71.8337 109.703V109.703Z" fill="#CC0000"/>
<path d="M47.6792 159.705L47.3351 164.15L6.52715 164.845C5.99995 164.854 5.47731 164.745 4.99672 164.526C4.51612 164.307 4.08949 163.983 3.74743 163.579C3.40537 163.174 3.15636 162.697 3.01827 162.184C2.88018 161.67 2.85642 161.132 2.94871 160.608L3.08634 159.705H47.6792Z" fill="#700B0B"/>
<path d="M71.8335 109.703L62.7498 213.597C62.6738 214.54 62.2498 215.42 61.5617 216.063C60.8736 216.706 59.9715 217.065 59.0337 217.069H56.9692L67.7734 106.648H69.0809C69.4634 106.657 69.8401 106.744 70.1882 106.904C70.5362 107.065 70.8484 107.295 71.1058 107.58C71.3632 107.866 71.5604 108.202 71.6855 108.566C71.8106 108.931 71.8609 109.318 71.8335 109.703V109.703Z" fill="#700B0B"/>
<path d="M25.6593 142.135C25.6065 142.437 25.6207 142.746 25.7007 143.042C25.7807 143.337 25.9246 143.611 26.1221 143.843C26.3195 144.076 26.5656 144.261 26.8425 144.386C27.1195 144.511 27.4205 144.572 27.7238 144.566H23.7325C23.3881 144.568 23.0475 144.494 22.7345 144.35C22.4214 144.205 22.1437 143.992 21.9206 143.728C21.6976 143.463 21.5348 143.152 21.4436 142.817C21.3524 142.482 21.335 142.131 21.3927 141.788L27.5174 106.717H28.412C28.8379 106.724 29.2574 106.824 29.642 107.008C30.0266 107.193 30.3674 107.459 30.6414 107.788C30.9154 108.118 31.1162 108.502 31.2302 108.916C31.3442 109.331 31.3688 109.765 31.3022 110.189L25.6593 142.135Z" fill="#700B0B"/>
<path d="M298.924 109.703L289.84 213.597C289.764 214.54 289.34 215.42 288.652 216.063C287.964 216.706 287.062 217.065 286.124 217.069H272.498C271.968 217.069 271.444 216.956 270.961 216.736C270.478 216.516 270.046 216.196 269.695 215.795C269.344 215.395 269.081 214.924 268.923 214.413C268.766 213.902 268.718 213.364 268.782 212.833L274.494 164.15L233.686 164.845C233.159 164.854 232.636 164.745 232.155 164.526C231.675 164.307 231.248 163.983 230.906 163.579C230.564 163.174 230.315 162.697 230.177 162.184C230.039 161.67 230.015 161.132 230.107 160.608L230.245 159.705L239.604 109.078C239.73 108.397 240.088 107.781 240.616 107.338C241.143 106.894 241.808 106.65 242.494 106.648H255.501C255.927 106.655 256.346 106.754 256.731 106.939C257.115 107.124 257.456 107.39 257.73 107.719C258.004 108.048 258.205 108.433 258.319 108.847C258.433 109.261 258.457 109.695 258.391 110.12L252.817 142.066C252.764 142.367 252.778 142.677 252.858 142.972C252.938 143.268 253.082 143.541 253.279 143.774C253.477 144.006 253.723 144.192 254 144.317C254.277 144.442 254.578 144.503 254.881 144.496H274.356L278.898 109.009C278.993 108.339 279.323 107.725 279.828 107.279C280.333 106.833 280.98 106.585 281.651 106.578H296.171C296.559 106.588 296.941 106.679 297.294 106.844C297.646 107.009 297.961 107.245 298.219 107.538C298.477 107.831 298.672 108.175 298.794 108.547C298.915 108.919 298.959 109.313 298.924 109.703V109.703Z" fill="#CC0000"/>
<path d="M274.838 159.705L274.494 164.15L233.686 164.845C233.159 164.854 232.636 164.745 232.155 164.526C231.675 164.307 231.248 163.983 230.906 163.579C230.564 163.174 230.315 162.697 230.177 162.184C230.039 161.67 230.015 161.132 230.107 160.608L230.245 159.705H274.838Z" fill="#700B0B"/>
<path d="M298.924 109.703L289.841 213.597C289.765 214.54 289.341 215.42 288.653 216.063C287.964 216.706 287.062 217.065 286.125 217.069H284.06L294.864 106.648H296.172C296.558 106.644 296.94 106.724 297.294 106.88C297.648 107.036 297.965 107.266 298.225 107.554C298.485 107.843 298.681 108.183 298.802 108.553C298.922 108.924 298.964 109.316 298.924 109.703V109.703Z" fill="#700B0B"/>
<path d="M252.816 142.135C252.763 142.437 252.777 142.746 252.857 143.042C252.937 143.337 253.081 143.611 253.279 143.843C253.476 144.076 253.722 144.261 253.999 144.386C254.276 144.511 254.577 144.572 254.881 144.566H250.889C250.545 144.568 250.204 144.494 249.891 144.349C249.578 144.205 249.3 143.992 249.077 143.728C248.854 143.463 248.692 143.152 248.6 142.817C248.509 142.482 248.492 142.131 248.549 141.788L254.674 106.717H255.569C255.995 106.724 256.414 106.823 256.799 107.008C257.183 107.193 257.524 107.459 257.798 107.788C258.072 108.117 258.273 108.502 258.387 108.916C258.501 109.331 258.526 109.765 258.459 110.189L252.816 142.135Z" fill="#700B0B"/>
<path opacity="0.28" d="M127.988 60.3495L113.881 196.417C113.124 203.744 115.601 210.678 118.973 210.678H193.708C197.011 210.678 199.488 204.005 198.869 196.94L187.308 60.8729C186.826 55.3778 184.693 51.4528 182.147 51.4528H133.15C130.672 51.322 128.539 55.1162 127.988 60.3495Z" fill="#CC0000"/>
<path d="M171.941 138.366C171.081 136.839 169.49 135.886 167.784 135.878C164.695 135.862 153.149 138.998 153.149 138.998C153.149 138.998 141.602 142.134 138.935 143.714C137.462 144.586 136.554 146.217 136.563 147.976C136.578 151.161 138.22 157.373 138.22 157.373C138.22 157.373 139.862 163.585 141.42 166.351C142.28 167.879 143.87 168.831 145.576 168.839C148.665 168.856 160.212 165.719 160.212 165.719C160.212 165.719 171.758 162.583 174.425 161.003C175.899 160.132 176.807 158.501 176.798 156.742C176.783 153.556 175.141 147.344 175.141 147.344C175.141 147.344 173.496 141.133 171.941 138.366Z" fill="#700B0B"/>
<path d="M171.044 138.397C170.211 136.939 168.657 136.038 166.984 136.042C163.954 136.047 152.608 139.129 152.608 139.129C152.608 139.129 141.263 142.211 138.636 143.742C137.185 144.587 136.284 146.154 136.281 147.839C136.274 150.889 137.844 156.827 137.844 156.827C137.844 156.827 139.414 162.765 140.924 165.403C141.757 166.861 143.311 167.762 144.984 167.758C148.014 167.753 159.36 164.671 159.36 164.671C159.36 164.671 170.705 161.589 173.332 160.058C174.783 159.214 175.684 157.646 175.687 155.961C175.693 152.911 174.124 146.973 174.124 146.973C174.124 146.973 172.551 141.036 171.044 138.397Z" fill="#CC0000"/>
<path d="M153.796 158.366L161.779 150.327L150.901 147.413L153.796 158.366Z" fill="white"/>
<path d="M189.597 76.8667L196.409 99.7149C196.436 99.8303 196.488 99.9383 196.561 100.031C196.634 100.124 196.726 100.2 196.831 100.253C196.936 100.306 197.051 100.335 197.169 100.338C197.286 100.341 197.403 100.318 197.51 100.27V100.27C197.696 100.198 197.848 100.058 197.937 99.8782C198.026 99.6985 198.046 99.4917 197.992 99.2982L193.519 75.8944C193.448 75.5992 193.315 75.3229 193.129 75.0844C192.943 74.8458 192.708 74.6507 192.44 74.5122C192.172 74.3738 191.878 74.2953 191.577 74.2821C191.276 74.269 190.976 74.3215 190.698 74.436V74.436C190.254 74.6388 189.899 74.9966 189.696 75.4434C189.494 75.8901 189.458 76.3957 189.597 76.8667V76.8667Z" fill="#FED972"/>
<path d="M176.728 85.1302L181.132 102.77C181.148 102.844 181.179 102.914 181.222 102.976C181.266 103.037 181.322 103.089 181.387 103.128C181.451 103.168 181.523 103.193 181.597 103.203C181.672 103.213 181.748 103.207 181.82 103.187V103.187C181.884 103.169 181.944 103.139 181.996 103.098C182.048 103.057 182.092 103.006 182.124 102.948C182.156 102.89 182.176 102.825 182.183 102.759C182.19 102.692 182.183 102.625 182.164 102.562L179.343 84.5746C179.308 84.3718 179.229 84.1794 179.111 84.0115C178.993 83.8437 178.839 83.7047 178.661 83.6047C178.483 83.5048 178.284 83.4465 178.081 83.434C177.877 83.4216 177.674 83.4554 177.485 83.5329V83.5329C177.201 83.6769 176.973 83.9119 176.836 84.201C176.699 84.4901 176.661 84.817 176.728 85.1302V85.1302Z" fill="#FED972"/>
<path d="M119.335 79.089L113.624 96.6593C113.603 96.7368 113.566 96.8087 113.514 96.87C113.463 96.9312 113.399 96.9802 113.326 97.0134C113.254 97.0466 113.175 97.0632 113.096 97.062C113.016 97.0608 112.938 97.0419 112.867 97.0065V97.0065C112.738 96.9493 112.633 96.8487 112.57 96.7219C112.508 96.5951 112.491 96.4501 112.522 96.312L116.651 78.3251C116.704 78.1266 116.798 77.9416 116.927 77.7824C117.055 77.6231 117.216 77.4933 117.398 77.4014C117.58 77.3095 117.78 77.2576 117.983 77.2492C118.186 77.2409 118.389 77.2762 118.578 77.3528V77.3528C118.894 77.4976 119.146 77.7547 119.285 78.075C119.425 78.3953 119.443 78.7564 119.335 79.089V79.089Z" fill="#FED972"/>
<path d="M130.689 84.5051L123.257 117.145C123.241 117.22 123.211 117.29 123.167 117.351C123.123 117.413 123.067 117.465 123.003 117.504C122.938 117.543 122.866 117.568 122.792 117.578C122.717 117.588 122.642 117.583 122.569 117.562V117.562C122.505 117.545 122.445 117.515 122.393 117.474C122.341 117.433 122.298 117.382 122.266 117.323C122.233 117.265 122.213 117.201 122.206 117.134C122.199 117.068 122.206 117.001 122.225 116.937L128.074 83.9495C128.109 83.7467 128.188 83.5543 128.306 83.3864C128.424 83.2186 128.578 83.0796 128.756 82.9796C128.935 82.8797 129.133 82.8213 129.336 82.8089C129.54 82.7965 129.744 82.8303 129.933 82.9078V82.9078C130.241 83.0214 130.492 83.2522 130.634 83.5507C130.775 83.8493 130.795 84.1918 130.689 84.5051V84.5051Z" fill="#FED972"/>
<path d="M146.449 88.3227L142.87 112.004C142.861 112.082 142.834 112.156 142.792 112.221C142.75 112.287 142.693 112.342 142.627 112.382C142.561 112.422 142.486 112.446 142.409 112.453C142.332 112.46 142.255 112.449 142.182 112.421V112.421C142.054 112.379 141.944 112.294 141.869 112.181C141.794 112.067 141.759 111.932 141.769 111.796L143.696 87.906C143.726 87.7065 143.799 87.516 143.91 87.3478C144.02 87.1796 144.165 87.0376 144.336 86.9319C144.506 86.8261 144.697 86.7591 144.896 86.7354C145.094 86.7118 145.295 86.732 145.485 86.7949V86.7949C145.648 86.8312 145.802 86.8995 145.939 86.996C146.075 87.0925 146.192 87.2152 146.281 87.3571C146.371 87.4991 146.432 87.6574 146.46 87.8231C146.489 87.9888 146.485 88.1585 146.449 88.3227V88.3227Z" fill="#FED972"/>
<path d="M164.891 87.8394L165.786 125.41C165.785 125.489 165.767 125.567 165.735 125.638C165.702 125.71 165.656 125.773 165.597 125.826C165.539 125.878 165.471 125.917 165.397 125.942C165.322 125.966 165.244 125.974 165.167 125.966V125.966C165.036 125.943 164.917 125.875 164.829 125.774C164.741 125.673 164.691 125.545 164.685 125.41L162.139 87.8394C162.133 87.6371 162.172 87.436 162.253 87.2507C162.333 87.0654 162.454 86.9004 162.605 86.7676C162.756 86.6348 162.935 86.5375 163.128 86.4827C163.321 86.4278 163.524 86.4168 163.721 86.4504V86.4504C164.043 86.5153 164.333 86.6877 164.546 86.9397C164.758 87.1918 164.88 87.5088 164.891 87.8394Z" fill="#FED972"/>
<path d="M93.3906 53.7407C92.6976 52.9211 92.1188 52.0099 91.6702 51.0323L90.0874 40.3373L93.7347 43.7403L93.3906 53.7407Z" fill="#7E0000"/>
<path d="M196.064 57.3521C194.133 61.0531 191.701 64.4655 188.839 67.4915C182.645 74.1584 172.185 81.7282 156.633 81.7282C145.691 81.7282 137.571 78.0475 131.79 73.6028C126.349 69.4496 122.002 64.0126 119.128 57.7688L196.064 57.3521Z" fill="#7E0000"/>
<path d="M196.064 57.3521C194.133 61.0531 191.701 64.4655 188.839 67.4915C182.402 69.9234 175.704 71.5785 168.882 72.4222C152.917 74.5751 140.461 74.4362 131.79 73.6028C126.349 69.4496 122.002 64.0126 119.128 57.7688L196.064 57.3521Z" fill="#4E0808"/>
<path d="M220.288 39.9208C219.919 43.223 219.321 46.4951 218.499 49.7129C218.265 50.5999 217.894 51.4438 217.398 52.213C215.952 54.5742 213.2 57.1438 208.727 59.5744C207.97 59.9911 207.075 60.4078 206.181 60.8245C205.492 61.1717 204.804 61.4495 204.047 61.7968C203.015 62.2134 201.983 62.6301 200.882 63.0468C196.384 64.5929 191.785 65.8228 187.118 66.7275C186.706 66.797 186.362 66.8664 185.949 66.9359C184.916 67.1442 183.678 67.2831 182.37 67.422C176.865 68.047 169.57 68.4637 161.794 68.6026C160.349 68.6026 158.904 68.6721 157.459 68.6721C150.095 68.7415 142.663 68.5332 136.195 68.1859C134.818 68.1165 133.442 68.047 132.203 67.9081C129.017 67.7039 125.846 67.3097 122.707 66.7275C119.197 66.0331 116.031 65.2691 113.21 64.4358C112.04 64.0885 110.939 63.7413 109.838 63.394C101.305 60.5467 96.1435 57.0743 93.4597 53.8797C93.0723 53.4512 92.7266 52.9861 92.4274 52.4908C92.145 52.0813 91.9138 51.6381 91.7393 51.1713C91.5181 50.732 91.3561 50.2649 91.2575 49.7823C90.6704 47.4052 90.2337 44.9928 89.95 42.5598C89.6748 40.268 89.606 38.7402 89.606 38.7402L154.981 43.6709L220.357 39.9902L220.288 39.9208Z" fill="#F9C0C0"/>
<path d="M220.219 39.7819C220.1 40.4934 219.763 41.1493 219.256 41.657C217.535 43.671 213.406 46.6572 206.387 49.3657C205.492 49.7129 204.529 50.0601 203.497 50.4074C203.015 50.5463 202.533 50.7546 202.052 50.8935C201.019 51.2408 199.918 51.588 198.748 51.8658C194.251 53.1378 189.677 54.1121 185.054 54.7826C183.815 54.9909 182.508 55.1993 181.131 55.3382C174.67 56.1641 168.169 56.6278 161.656 56.7271C160.28 56.7271 158.835 56.7966 157.39 56.7966H157.321C149.958 56.7966 143.145 56.4493 137.02 55.8937C135.644 55.7548 134.268 55.6159 132.96 55.4771C126.938 54.8079 120.963 53.7642 115.068 52.3519C113.898 52.0741 112.728 51.7269 111.627 51.4491C101.373 48.6017 94.6295 45.0599 91.5327 42.1431C90.9912 41.6434 90.5065 41.0844 90.0876 40.4764C89.7127 39.9738 89.4968 39.3686 89.4683 38.7402C89.4683 33.8094 108.737 23.3228 157.665 23.3228C206.593 23.2534 220.219 36.379 220.219 39.7819Z" fill="#7E0000"/>
<path d="M129.451 28.9481L93.6663 43.7405C92.3008 42.7814 91.0734 41.6362 90.019 40.3375L128.281 28.3231L129.451 28.9481Z" fill="#4E0808"/>
<path d="M220.22 39.8514C220.082 40.5359 219.747 41.1642 219.256 41.657L182.508 28.9481L183.678 28.3925L220.22 39.8514Z" fill="#4E0808"/>
<path d="M135.506 32.7677L115.068 52.2824C113.898 52.0047 112.728 51.6574 111.627 51.3796L134.267 32.6982L135.506 32.7677Z" fill="#4E0808"/>
<path d="M146.724 35.0595L137.021 55.8938C135.644 55.7549 134.268 55.616 132.96 55.4771L145.485 34.9901L146.724 35.0595Z" fill="#4E0808"/>
<path d="M185.123 54.852C183.884 55.0604 182.508 55.2687 181.2 55.4076L171.704 35.0595L173.011 34.9901L185.123 54.852Z" fill="#4E0808"/>
<path d="M161.656 56.7966C160.28 56.7966 158.835 56.866 157.39 56.866H157.321L158.972 36.379L160.28 36.3096L161.656 56.7966Z" fill="#4E0808"/>
<path d="M206.318 49.3656C205.423 49.7129 204.46 50.0601 203.428 50.4074L178.723 32.7677L180.03 32.6982L206.318 49.3656Z" fill="#4E0808"/>
<path d="M161.726 68.4637C160.28 68.4637 158.835 68.5332 157.39 68.5332V56.7966L161.657 56.7271L161.726 68.4637Z" fill="#7E0000"/>
<path d="M185.811 66.797C184.71 67.0054 183.54 67.1443 182.232 67.2831L181.131 55.3382L185.054 54.7826L185.811 66.797Z" fill="#7E0000"/>
<path d="M208.658 59.505C207.901 59.9217 207.006 60.3384 206.112 60.7551L203.497 50.3379L206.318 49.3657L208.658 59.505Z" fill="#7E0000"/>
<path d="M137.02 55.8937L136.194 68.0471C134.818 67.9776 133.441 67.9082 132.203 67.7693L133.028 55.4771L137.02 55.8937Z" fill="#7E0000"/>
<path d="M115.068 52.2825L113.141 64.2969C111.971 63.9496 110.87 63.6024 109.769 63.2552L111.558 51.3796L115.068 52.2825Z" fill="#7E0000"/>
<path d="M93.7346 43.8792L92.3582 52.4213C92.0758 52.0118 91.8446 51.5686 91.6701 51.1018C91.4489 50.6625 91.2869 50.1954 91.1884 49.7128C90.6012 47.3357 90.1645 44.9233 89.8809 42.4903L90.0873 40.4069C90.0873 40.4069 91.2572 41.7958 91.7389 42.2819C92.1518 42.6986 93.7346 43.8792 93.7346 43.8792Z" fill="#7E0000"/>
<path d="M154.43 44.6431C174.688 44.6431 191.11 39.9481 191.11 34.1566C191.11 28.365 174.688 23.67 154.43 23.67C134.173 23.67 117.751 28.365 117.751 34.1566C117.751 39.9481 134.173 44.6431 154.43 44.6431Z" fill="#4E0808"/>
<path d="M187.944 32.4898C187.944 32.4898 185.26 35.5455 178.654 38.1845C173.768 40.1291 166.749 41.7958 157.115 41.7958C152.498 41.8266 147.889 41.4079 143.351 40.5458C130.483 38.0456 124.909 32.6287 124.909 32.6287C124.909 32.6287 127.73 11.5167 145.347 4.36359C149.423 2.75215 153.769 1.95039 158.147 2.00238C182.37 2.00238 187.944 32.4898 187.944 32.4898Z" fill="#F8BEBE"/>
<path d="M143.351 40.5457C130.483 38.0456 124.909 32.6287 124.909 32.6287C124.909 32.6287 127.73 11.5167 145.347 4.36359C141.906 7.28038 138.534 13.114 137.984 22.6283C137.433 29.7119 139.085 35.615 143.351 40.5457Z" fill="#F9C0C0"/>
<path d="M187.944 32.4898C187.944 32.4898 185.26 35.5455 178.654 38.1845C177.965 35.6684 177.091 33.2078 176.039 30.8231C176.039 30.8231 169.57 32.212 166.68 26.0312C163.79 19.8504 170.74 15.4057 170.74 15.4057C170.74 15.4057 169.089 10.0583 160.555 6.58591C152.022 3.11354 145.209 4.36359 145.209 4.36359C149.286 2.75215 153.632 1.95039 158.009 2.00238C182.37 2.00238 187.944 32.4898 187.944 32.4898Z" fill="#FDBEBE"/>
<path d="M160.211 19.4337C161.237 19.4337 162.069 18.6253 162.069 17.6281C162.069 16.6309 161.237 15.8224 160.211 15.8224C159.185 15.8224 158.353 16.6309 158.353 17.6281C158.353 18.6253 159.185 19.4337 160.211 19.4337Z" fill="#F9C0C0"/>
<path d="M153.743 21.1699C154.541 21.1699 155.188 20.548 155.188 19.7809C155.188 19.0138 154.541 18.392 153.743 18.392C152.944 18.392 152.297 19.0138 152.297 19.7809C152.297 20.548 152.944 21.1699 153.743 21.1699Z" fill="#F9C0C0"/>
<path d="M158.078 30.5453C159.636 30.5453 160.899 29.3016 160.899 27.7674C160.899 26.2332 159.636 24.9895 158.078 24.9895C156.52 24.9895 155.256 26.2332 155.256 27.7674C155.256 29.3016 156.52 30.5453 158.078 30.5453Z" fill="#F9C0C0"/>
</svg>
