<svg width="28" height="28" viewBox="0 0 28 28" fill="none" xmlns="http://www.w3.org/2000/svg">
<path d="M1.5 14.5L1.51172 14.5C1.60366 16.7969 2.32581 19.0276 3.60645 20.9443C4.97996 23 6.93272 24.6027 9.2168 25.5488C11.5007 26.4948 14.0139 26.742 16.4385 26.2598C18.8632 25.7775 21.0907 24.587 22.8389 22.8389C24.587 21.0907 25.7775 18.8632 26.2598 16.4385C26.742 14.0139 26.4948 11.5007 25.5488 9.2168C24.6027 6.93272 23 4.97996 20.9443 3.60645C18.8888 2.23305 16.4722 1.5 14 1.5C13.6022 1.5 13.2208 1.65815 12.9395 1.93945C12.6581 2.22076 12.5 2.60218 12.5 3C12.5 3.39782 12.6581 3.77924 12.9395 4.06055C13.2208 4.34185 13.6022 4.5 14 4.5L14.001 4.5C16.1978 4.4966 18.3279 5.25545 20.0273 6.64746C21.7269 8.03962 22.8911 9.97917 23.3203 12.1338C23.7494 14.2882 23.4171 16.5249 22.3809 18.4619C21.3445 20.3991 19.6682 21.9171 17.6377 22.7559C15.6072 23.5946 13.3484 23.7017 11.2471 23.0605C9.14576 22.4194 7.33163 21.0687 6.11523 19.2393C4.89904 17.4099 4.35544 15.2149 4.57715 13.0293C4.75636 11.2631 5.42677 9.59164 6.5 8.19824L6.5 10C6.5 10.3978 6.65815 10.7792 6.93945 11.0605C7.22076 11.3419 7.60218 11.5 8 11.5C8.39783 11.5 8.77924 11.3419 9.06055 11.0605C9.34185 10.7792 9.5 10.3978 9.5 10L9.5 7C9.5 6.07174 9.13099 5.18177 8.47461 4.52539C7.81823 3.86901 6.92826 3.5 6 3.5L3 3.5C2.60218 3.5 2.22076 3.65815 1.93945 3.93945C1.65815 4.22076 1.5 4.60218 1.5 5C1.5 5.39782 1.65815 5.77924 1.93945 6.06055C2.22076 6.34185 2.60218 6.5 3 6.5L4.01465 6.5C2.39092 8.65317 1.50194 11.2838 1.5 14L1.5 14.5Z" fill="white" stroke="white"/>
</svg>
